<svg width="1200" height="720" viewBox="0 0 1200 720" fill="none" xmlns="http://www.w3.org/2000/svg" role="img" aria-labelledby="title desc">
  <title id="title">Job Application Tracker Placeholder</title>
  <desc id="desc">Placeholder interface mockup for the Job Application Tracker project card.</desc>
  <defs>
    <linearGradient id="bg" x1="72" y1="52" x2="1124" y2="668" gradientUnits="userSpaceOnUse">
      <stop stop-color="#0F172A"/>
      <stop offset="1" stop-color="#1E3A8A"/>
    </linearGradient>
  </defs>
  <rect x="0" y="0" width="1200" height="720" rx="24" fill="url(#bg)"/>
  <rect x="52" y="52" width="1096" height="616" rx="18" fill="#0B1220" stroke="#334155"/>
  <rect x="86" y="102" width="296" height="42" rx="8" fill="#1E293B"/>
  <rect x="86" y="168" width="440" height="24" rx="6" fill="#334155"/>
  <rect x="86" y="214" width="320" height="16" rx="6" fill="#334155"/>
  <rect x="86" y="258" width="330" height="374" rx="12" fill="#111827" stroke="#334155"/>
  <rect x="448" y="258" width="314" height="374" rx="12" fill="#111827" stroke="#334155"/>
  <rect x="794" y="258" width="320" height="374" rx="12" fill="#111827" stroke="#334155"/>
  <rect x="106" y="290" width="170" height="14" rx="4" fill="#60A5FA"/>
  <rect x="468" y="290" width="170" height="14" rx="4" fill="#22D3EE"/>
  <rect x="814" y="290" width="170" height="14" rx="4" fill="#A78BFA"/>
  <text x="86" y="630" fill="#BFDBFE" font-size="30" font-family="Arial, Helvetica, sans-serif">Job Application Tracker Placeholder</text>
</svg>
