<svg width="1200" height="720" viewBox="0 0 1200 720" fill="none" xmlns="http://www.w3.org/2000/svg" role="img" aria-labelledby="title desc">
  <title id="title">Health is Wealth Placeholder</title>
  <desc id="desc">Placeholder interface mockup for the Health is Wealth project card.</desc>
  <defs>
    <linearGradient id="bg" x1="54" y1="44" x2="1146" y2="676" gradientUnits="userSpaceOnUse">
      <stop stop-color="#052E16"/>
      <stop offset="1" stop-color="#0F766E"/>
    </linearGradient>
  </defs>
  <rect width="1200" height="720" rx="24" fill="url(#bg)"/>
  <rect x="64" y="64" width="1072" height="592" rx="18" fill="#031E1B" stroke="#14532D"/>
  <rect x="106" y="116" width="460" height="30" rx="8" fill="#14532D"/>
  <g fill="#065F46" stroke="#0F766E">
    <rect x="106" y="184" width="560" height="318" rx="12"/>
    <rect x="700" y="184" width="394" height="150" rx="12"/>
    <rect x="700" y="352" width="394" height="150" rx="12"/>
  </g>
  <rect x="120" y="204" width="84" height="64" rx="8" fill="#10B981"/>
  <rect x="214" y="204" width="84" height="64" rx="8" fill="#22C55E"/>
  <rect x="308" y="204" width="84" height="64" rx="8" fill="#34D399"/>
  <rect x="402" y="204" width="84" height="64" rx="8" fill="#6EE7B7"/>
  <rect x="496" y="204" width="84" height="64" rx="8" fill="#A7F3D0"/>
  <text x="106" y="620" fill="#CCFBF1" font-size="30" font-family="Arial, Helvetica, sans-serif">Health is Wealth Placeholder</text>
</svg>
